<svg width="20" height="20" viewBox="0 0 20 20" fill="none" xmlns="http://www.w3.org/2000/svg">
<path d="M14.125 10.1514C14.3314 10.6783 13.756 11.3105 12.6053 12.5749C11.3915 13.9085 10.7664 14.5753 9.99967 14.5833C9.23292 14.5753 8.60784 13.9085 7.3941 12.5749C6.24333 11.3105 5.66795 10.6783 5.87437 10.1514C5.88191 10.1322 5.8901 10.1132 5.89892 10.0946C6.12407 9.61833 6.87031 9.58575 8.33301 9.5835V4.16665C8.33301 3.77917 8.33301 3.58544 8.37559 3.42649C8.49117 2.99512 8.82809 2.65817 9.25951 2.54259C9.41842 2.5 9.61217 2.5 9.99967 2.5C10.3871 2.5 10.5808 2.5 10.7398 2.54259C11.1712 2.65817 11.5082 2.99512 11.6238 3.42649C11.6663 3.58544 11.6663 3.77917 11.6663 4.16665V9.5835C13.129 9.58575 13.8753 9.61833 14.1004 10.0946C14.1093 10.1132 14.1174 10.1322 14.125 10.1514Z" stroke="#ED4909" stroke-width="1.5" stroke-linecap="round" stroke-linejoin="round"/>
<path d="M4.16699 17.5H15.8337" stroke="#ED4909" stroke-width="1.5" stroke-linecap="round" stroke-linejoin="round"/>
</svg>
