<svg width="20" height="20" viewBox="0 0 20 20" fill="none" xmlns="http://www.w3.org/2000/svg">
<path d="M5.41699 7.5H7.08366" stroke="white" stroke-width="1.5" stroke-linecap="round" stroke-linejoin="round"/>
<path d="M14.583 6.66663V3.33329C14.583 2.41282 15.3292 1.66663 16.2497 1.66663" stroke="white" stroke-width="1.5" stroke-linecap="round" stroke-linejoin="round"/>
<path d="M10.417 15V18.3333" stroke="white" stroke-width="1.5" stroke-linecap="round"/>
<path d="M14.583 4.29903C13.7789 4.16663 12.7156 4.16663 11.1455 4.16663H8.85384C6.42193 4.16663 5.20598 4.16663 4.28552 4.65862C3.55874 5.04709 2.96347 5.64236 2.575 6.36914C2.08301 7.2896 2.08301 8.50554 2.08301 10.9375C2.08301 12.3966 2.08301 13.1262 2.37821 13.6785C2.61129 14.1145 2.96845 14.4717 3.40452 14.7048C3.95679 15 4.68637 15 6.14551 15H13.8538C15.313 15 16.0426 15 16.5948 14.7048C17.0309 14.4717 17.3881 14.1145 17.6212 13.6785C17.9163 13.1262 17.9163 12.3966 17.9163 10.9375C17.9163 8.50554 17.9163 7.2896 17.4243 6.36914C17.2793 6.09792 17.1056 5.84501 16.9069 5.61433" stroke="white" stroke-width="1.5" stroke-linecap="round"/>
<path d="M10.4175 15V9.16667C10.4175 8.3925 10.4175 8.00541 10.3662 7.68152C10.0838 5.89864 8.68549 4.50034 6.90262 4.21796C6.83441 4.20716 6.76337 4.19863 6.68652 4.19189" stroke="white" stroke-width="1.5" stroke-linecap="round"/>
</svg>
