<svg width="28" height="28" viewBox="0 0 28 28" fill="none" xmlns="http://www.w3.org/2000/svg">
<path d="M16.333 18.6667C16.333 16.4668 16.333 15.3669 17.0164 14.6834C17.6999 14 18.7998 14 20.9997 14C23.1995 14 24.2995 14 24.9829 14.6834C25.6663 15.3669 25.6663 16.4668 25.6663 18.6667C25.6663 20.8665 25.6663 21.9665 24.9829 22.6499C24.2995 23.3333 23.1995 23.3333 20.9997 23.3333C18.7998 23.3333 17.6999 23.3333 17.0164 22.6499C16.333 21.9665 16.333 20.8665 16.333 18.6667Z" fill="#585260" stroke="#585260" stroke-width="1.5"/>
<path d="M16.333 18.6667V13.8398C16.333 9.56172 19.268 5.93356 23.333 4.66675" stroke="#585260" stroke-width="1.5" stroke-linecap="round"/>
<path d="M2.33301 18.6667C2.33301 16.4668 2.33301 15.3669 3.01643 14.6834C3.69984 14 4.79978 14 6.99967 14C9.19956 14 10.2995 14 10.9829 14.6834C11.6663 15.3669 11.6663 16.4668 11.6663 18.6667C11.6663 20.8665 11.6663 21.9665 10.9829 22.6499C10.2995 23.3333 9.19956 23.3333 6.99967 23.3333C4.79978 23.3333 3.69984 23.3333 3.01643 22.6499C2.33301 21.9665 2.33301 20.8665 2.33301 18.6667Z" fill="#585260" stroke="#585260" stroke-width="1.5"/>
<path d="M2.33301 18.6667V13.8398C2.33301 9.56172 5.268 5.93356 9.33301 4.66675" stroke="#585260" stroke-width="1.5" stroke-linecap="round"/>
</svg>
