<svg width="19" height="19" viewBox="0 0 19 19" fill="none" xmlns="http://www.w3.org/2000/svg">
<path d="M9.4423 1.57056C9.08502 1.57056 8.81019 1.7433 8.64608 1.88386C8.47334 2.03227 8.33592 2.21679 8.24405 2.40132C8.22897 2.43159 8.21585 2.4628 8.20479 2.49476L6.8016 6.52765H2.10521C1.74793 6.52765 1.47311 6.7004 1.309 6.84095C1.14163 6.98503 1.00492 7.16127 0.906963 7.35919C0.742852 7.68585 0.765623 8.03291 0.851998 8.29282C0.93052 8.52603 1.09149 8.78515 1.36239 8.95397L4.98539 11.8703L3.83897 16.2793C3.72276 16.5777 3.74867 16.8831 3.82641 17.1171C3.91278 17.3762 4.10359 17.6668 4.43103 17.8317C4.63154 17.9352 4.85394 17.9893 5.07962 17.9893C5.3053 17.9893 5.5277 17.9352 5.72821 17.8317C5.76489 17.8132 5.80007 17.792 5.83343 17.7681L9.53574 15.1234L13.1069 17.7367C13.4241 18.0154 13.772 18.0138 13.8913 18.0131H13.9165C14.0311 18.0138 14.357 18.0154 14.664 17.7673C14.9239 17.5985 15.0802 17.3456 15.1571 17.1171C15.2527 16.8377 15.2454 16.5334 15.1367 16.2589L13.8175 11.9527L17.5709 8.91471C17.6579 8.84417 17.7289 8.75582 17.779 8.65559L17.7955 8.62183C17.8818 8.453 18.0601 8.10123 18.0601 7.71019C18.0601 7.58805 18.0316 7.4676 17.9768 7.35841C17.8788 7.16076 17.7421 6.9848 17.5748 6.84095C17.4107 6.69961 17.1359 6.52765 16.7794 6.52765H12.1701L10.6743 2.47984C10.6645 2.45307 10.6532 2.42686 10.6405 2.40132C10.5426 2.20339 10.4059 2.02716 10.2385 1.88307C10.0736 1.74252 9.79879 1.57056 9.4423 1.57056Z" fill="#FFD310"/>
</svg>
