<svg width="16" height="16" viewBox="0 0 16 16" fill="none" xmlns="http://www.w3.org/2000/svg">
<rect width="16" height="16" rx="8" fill="url(#paint0_linear_1021_1167)"/>
<path d="M4.472 11.112C4.04 11.112 3.65867 11.0347 3.328 10.88C2.99733 10.7253 2.73867 10.504 2.552 10.216C2.36533 9.928 2.272 9.58133 2.272 9.176V8.952H3.312V9.176C3.312 9.512 3.416 9.76533 3.624 9.936C3.832 10.1013 4.11467 10.184 4.472 10.184C4.83467 10.184 5.104 10.112 5.28 9.968C5.46133 9.824 5.552 9.64 5.552 9.416C5.552 9.26133 5.50667 9.136 5.416 9.04C5.33067 8.944 5.20267 8.86667 5.032 8.808C4.86667 8.744 4.664 8.68533 4.424 8.632L4.24 8.592C3.856 8.50667 3.52533 8.4 3.248 8.272C2.976 8.13867 2.76533 7.96533 2.616 7.752C2.472 7.53867 2.4 7.26133 2.4 6.92C2.4 6.57867 2.48 6.288 2.64 6.048C2.80533 5.80267 3.03467 5.616 3.328 5.488C3.62667 5.35467 3.976 5.288 4.376 5.288C4.776 5.288 5.13067 5.35733 5.44 5.496C5.75467 5.62933 6 5.832 6.176 6.104C6.35733 6.37067 6.448 6.70667 6.448 7.112V7.352H5.408V7.112C5.408 6.89867 5.36533 6.728 5.28 6.6C5.2 6.46667 5.08267 6.37067 4.928 6.312C4.77333 6.248 4.58933 6.216 4.376 6.216C4.056 6.216 3.81867 6.27733 3.664 6.4C3.51467 6.51733 3.44 6.68 3.44 6.888C3.44 7.02667 3.47467 7.144 3.544 7.24C3.61867 7.336 3.728 7.416 3.872 7.48C4.016 7.544 4.2 7.6 4.424 7.648L4.608 7.688C5.008 7.77333 5.35467 7.88267 5.648 8.016C5.94667 8.14933 6.17867 8.32533 6.344 8.544C6.50933 8.76267 6.592 9.04267 6.592 9.384C6.592 9.72533 6.504 10.0267 6.328 10.288C6.15733 10.544 5.912 10.7467 5.592 10.896C5.27733 11.04 4.904 11.112 4.472 11.112ZM7.37956 11V5.4H8.43556V7.624H8.57956L10.3956 5.4H11.7476L9.41156 8.16L11.8276 11H10.4356L8.57956 8.728H8.43556V11H7.37956Z" fill="black"/>
<path d="M13.0594 11.112C12.8407 11.112 12.6567 11.0427 12.5074 10.904C12.3634 10.76 12.2914 10.576 12.2914 10.352C12.2914 10.128 12.3634 9.94667 12.5074 9.808C12.6567 9.664 12.8407 9.592 13.0594 9.592C13.2727 9.592 13.4514 9.664 13.5954 9.808C13.7394 9.94667 13.8114 10.128 13.8114 10.352C13.8114 10.576 13.7394 10.76 13.5954 10.904C13.4514 11.0427 13.2727 11.112 13.0594 11.112Z" fill="#ED4909"/>
<defs>
<linearGradient id="paint0_linear_1021_1167" x1="2.31915" y1="3.30827" x2="4.70747" y2="15.5161" gradientUnits="userSpaceOnUse">
<stop stop-color="white"/>
<stop offset="1" stop-color="#FFEAD4"/>
</linearGradient>
</defs>
</svg>
